<mxfile host="app.diagrams.net" modified="2024-05-02T20:42:37.229Z" agent="Mozilla/5.0 (Windows NT 10.0; Win64; x64) AppleWebKit/537.36 (KHTML, like Gecko) Chrome/124.0.0.0 Safari/537.36 Edg/124.0.0.0" etag="N2uIVUxaZuHAlArBJ6NY" version="24.3.1" type="google">
  <diagram name="PÃ¡gina-1" id="65w1sUpE2hSjTje_U_7h">
    <mxGraphModel grid="1" page="1" gridSize="10" guides="1" tooltips="1" connect="1" arrows="1" fold="1" pageScale="1" pageWidth="827" pageHeight="1169" math="0" shadow="0">
      <root>
        <mxCell id="0" />
        <mxCell id="1" parent="0" />
        <mxCell id="SMXq_fUOEdLXHpyvRAcT-3" value="" style="edgeStyle=orthogonalEdgeStyle;rounded=0;orthogonalLoop=1;jettySize=auto;html=1;" edge="1" parent="1" source="SMXq_fUOEdLXHpyvRAcT-1" target="SMXq_fUOEdLXHpyvRAcT-2">
          <mxGeometry relative="1" as="geometry" />
        </mxCell>
        <mxCell id="SMXq_fUOEdLXHpyvRAcT-1" value="INICIO" style="ellipse;whiteSpace=wrap;html=1;" vertex="1" parent="1">
          <mxGeometry x="300" y="100" width="120" height="80" as="geometry" />
        </mxCell>
        <mxCell id="SMXq_fUOEdLXHpyvRAcT-5" value="" style="edgeStyle=orthogonalEdgeStyle;rounded=0;orthogonalLoop=1;jettySize=auto;html=1;" edge="1" parent="1" source="SMXq_fUOEdLXHpyvRAcT-2" target="SMXq_fUOEdLXHpyvRAcT-4">
          <mxGeometry relative="1" as="geometry" />
        </mxCell>
        <mxCell id="SMXq_fUOEdLXHpyvRAcT-2" value="Declarando seconds" style="whiteSpace=wrap;html=1;" vertex="1" parent="1">
          <mxGeometry x="300" y="210" width="120" height="60" as="geometry" />
        </mxCell>
        <mxCell id="SMXq_fUOEdLXHpyvRAcT-46" value="" style="edgeStyle=orthogonalEdgeStyle;rounded=0;orthogonalLoop=1;jettySize=auto;html=1;" edge="1" parent="1" source="SMXq_fUOEdLXHpyvRAcT-4" target="SMXq_fUOEdLXHpyvRAcT-45">
          <mxGeometry relative="1" as="geometry" />
        </mxCell>
        <mxCell id="SMXq_fUOEdLXHpyvRAcT-4" value="INPUT seconds" style="shape=parallelogram;perimeter=parallelogramPerimeter;whiteSpace=wrap;html=1;fixedSize=1;" vertex="1" parent="1">
          <mxGeometry x="300" y="300" width="120" height="60" as="geometry" />
        </mxCell>
        <mxCell id="SMXq_fUOEdLXHpyvRAcT-10" value="horas_size = (seconds / 3600).size()&lt;div&gt;&amp;nbsp;minutos_size = ((seconds % 3600) / 60).size()&lt;/div&gt;&lt;div&gt;segundos_finales_size = ((segundos % 3600)%60).size()&lt;/div&gt;" style="whiteSpace=wrap;html=1;" vertex="1" parent="1">
          <mxGeometry x="202.5" y="510" width="315" height="60" as="geometry" />
        </mxCell>
        <mxCell id="SMXq_fUOEdLXHpyvRAcT-19" value="" style="endArrow=none;html=1;rounded=0;entryX=0.5;entryY=1;entryDx=0;entryDy=0;" edge="1" parent="1" target="SMXq_fUOEdLXHpyvRAcT-10">
          <mxGeometry width="50" height="50" relative="1" as="geometry">
            <mxPoint x="360" y="600" as="sourcePoint" />
            <mxPoint x="470" y="680" as="targetPoint" />
          </mxGeometry>
        </mxCell>
        <mxCell id="SMXq_fUOEdLXHpyvRAcT-20" value="" style="endArrow=none;html=1;rounded=0;" edge="1" parent="1">
          <mxGeometry width="50" height="50" relative="1" as="geometry">
            <mxPoint x="120" y="600" as="sourcePoint" />
            <mxPoint x="940" y="600" as="targetPoint" />
          </mxGeometry>
        </mxCell>
        <mxCell id="SMXq_fUOEdLXHpyvRAcT-21" value="" style="endArrow=classic;html=1;rounded=0;" edge="1" parent="1">
          <mxGeometry width="50" height="50" relative="1" as="geometry">
            <mxPoint x="120" y="600" as="sourcePoint" />
            <mxPoint x="120" y="640" as="targetPoint" />
          </mxGeometry>
        </mxCell>
        <mxCell id="SMXq_fUOEdLXHpyvRAcT-22" value="" style="endArrow=classic;html=1;rounded=0;" edge="1" parent="1">
          <mxGeometry width="50" height="50" relative="1" as="geometry">
            <mxPoint x="492.5" y="600" as="sourcePoint" />
            <mxPoint x="492.5" y="640" as="targetPoint" />
          </mxGeometry>
        </mxCell>
        <mxCell id="SMXq_fUOEdLXHpyvRAcT-23" value="" style="endArrow=classic;html=1;rounded=0;" edge="1" parent="1">
          <mxGeometry width="50" height="50" relative="1" as="geometry">
            <mxPoint x="940.0000000000001" y="600" as="sourcePoint" />
            <mxPoint x="940.0000000000001" y="640" as="targetPoint" />
          </mxGeometry>
        </mxCell>
        <mxCell id="SMXq_fUOEdLXHpyvRAcT-29" value="" style="edgeStyle=orthogonalEdgeStyle;rounded=0;orthogonalLoop=1;jettySize=auto;html=1;" edge="1" parent="1" source="SMXq_fUOEdLXHpyvRAcT-25">
          <mxGeometry relative="1" as="geometry">
            <mxPoint x="120" y="760" as="targetPoint" />
          </mxGeometry>
        </mxCell>
        <mxCell id="SMXq_fUOEdLXHpyvRAcT-32" value="" style="edgeStyle=orthogonalEdgeStyle;rounded=0;orthogonalLoop=1;jettySize=auto;html=1;" edge="1" parent="1" source="SMXq_fUOEdLXHpyvRAcT-25">
          <mxGeometry relative="1" as="geometry">
            <mxPoint x="190" y="680" as="targetPoint" />
          </mxGeometry>
        </mxCell>
        <mxCell id="SMXq_fUOEdLXHpyvRAcT-25" value="horas_size &amp;lt;2" style="rhombus;whiteSpace=wrap;html=1;" vertex="1" parent="1">
          <mxGeometry x="70" y="640" width="100" height="80" as="geometry" />
        </mxCell>
        <mxCell id="SMXq_fUOEdLXHpyvRAcT-35" value="" style="edgeStyle=orthogonalEdgeStyle;rounded=0;orthogonalLoop=1;jettySize=auto;html=1;" edge="1" parent="1" source="SMXq_fUOEdLXHpyvRAcT-26">
          <mxGeometry relative="1" as="geometry">
            <mxPoint x="492.5" y="772" as="targetPoint" />
          </mxGeometry>
        </mxCell>
        <mxCell id="SMXq_fUOEdLXHpyvRAcT-39" value="" style="edgeStyle=orthogonalEdgeStyle;rounded=0;orthogonalLoop=1;jettySize=auto;html=1;" edge="1" parent="1" source="SMXq_fUOEdLXHpyvRAcT-26">
          <mxGeometry relative="1" as="geometry">
            <mxPoint x="570" y="680" as="targetPoint" />
          </mxGeometry>
        </mxCell>
        <mxCell id="SMXq_fUOEdLXHpyvRAcT-26" value="minutos_size &amp;lt;2" style="rhombus;whiteSpace=wrap;html=1;" vertex="1" parent="1">
          <mxGeometry x="437.5" y="640" width="110" height="80" as="geometry" />
        </mxCell>
        <mxCell id="SMXq_fUOEdLXHpyvRAcT-41" value="" style="edgeStyle=orthogonalEdgeStyle;rounded=0;orthogonalLoop=1;jettySize=auto;html=1;" edge="1" parent="1" source="SMXq_fUOEdLXHpyvRAcT-27">
          <mxGeometry relative="1" as="geometry">
            <mxPoint x="945" y="770" as="targetPoint" />
          </mxGeometry>
        </mxCell>
        <mxCell id="SMXq_fUOEdLXHpyvRAcT-44" value="" style="edgeStyle=orthogonalEdgeStyle;rounded=0;orthogonalLoop=1;jettySize=auto;html=1;" edge="1" parent="1" source="SMXq_fUOEdLXHpyvRAcT-27">
          <mxGeometry relative="1" as="geometry">
            <mxPoint x="1070" y="690" as="targetPoint" />
          </mxGeometry>
        </mxCell>
        <mxCell id="SMXq_fUOEdLXHpyvRAcT-27" value="segundos_finales_size &amp;lt; 2" style="rhombus;whiteSpace=wrap;html=1;" vertex="1" parent="1">
          <mxGeometry x="860" y="640" width="170" height="100" as="geometry" />
        </mxCell>
        <mxCell id="SMXq_fUOEdLXHpyvRAcT-56" value="" style="edgeStyle=orthogonalEdgeStyle;rounded=0;orthogonalLoop=1;jettySize=auto;html=1;exitX=0.5;exitY=1;exitDx=0;exitDy=0;" edge="1" parent="1" source="-d0Yh-_UQnf0t4MP10DG-1" target="SMXq_fUOEdLXHpyvRAcT-55">
          <mxGeometry relative="1" as="geometry">
            <mxPoint x="120" y="840" as="sourcePoint" />
          </mxGeometry>
        </mxCell>
        <mxCell id="SMXq_fUOEdLXHpyvRAcT-30" value="SI" style="text;html=1;align=center;verticalAlign=middle;resizable=0;points=[];autosize=1;strokeColor=none;fillColor=none;" vertex="1" parent="1">
          <mxGeometry x="65" y="718" width="30" height="30" as="geometry" />
        </mxCell>
        <mxCell id="SMXq_fUOEdLXHpyvRAcT-63" value="" style="edgeStyle=orthogonalEdgeStyle;rounded=0;orthogonalLoop=1;jettySize=auto;html=1;" edge="1" parent="1" target="SMXq_fUOEdLXHpyvRAcT-62">
          <mxGeometry relative="1" as="geometry">
            <mxPoint x="290" y="680" as="sourcePoint" />
          </mxGeometry>
        </mxCell>
        <mxCell id="SMXq_fUOEdLXHpyvRAcT-33" value="NO" style="text;html=1;align=center;verticalAlign=middle;resizable=0;points=[];autosize=1;strokeColor=none;fillColor=none;" vertex="1" parent="1">
          <mxGeometry x="140" y="628" width="40" height="30" as="geometry" />
        </mxCell>
        <mxCell id="SMXq_fUOEdLXHpyvRAcT-58" value="" style="edgeStyle=orthogonalEdgeStyle;rounded=0;orthogonalLoop=1;jettySize=auto;html=1;exitX=0.5;exitY=1;exitDx=0;exitDy=0;" edge="1" parent="1" source="-d0Yh-_UQnf0t4MP10DG-4" target="SMXq_fUOEdLXHpyvRAcT-57">
          <mxGeometry relative="1" as="geometry">
            <mxPoint x="492.5" y="852" as="sourcePoint" />
          </mxGeometry>
        </mxCell>
        <mxCell id="SMXq_fUOEdLXHpyvRAcT-36" value="SI" style="text;html=1;align=center;verticalAlign=middle;resizable=0;points=[];autosize=1;strokeColor=none;fillColor=none;" vertex="1" parent="1">
          <mxGeometry x="447.5" y="720" width="30" height="30" as="geometry" />
        </mxCell>
        <mxCell id="SMXq_fUOEdLXHpyvRAcT-37" value="NO" style="text;html=1;align=center;verticalAlign=middle;resizable=0;points=[];autosize=1;strokeColor=none;fillColor=none;" vertex="1" parent="1">
          <mxGeometry x="532.5" y="640" width="40" height="30" as="geometry" />
        </mxCell>
        <mxCell id="SMXq_fUOEdLXHpyvRAcT-65" value="" style="edgeStyle=orthogonalEdgeStyle;rounded=0;orthogonalLoop=1;jettySize=auto;html=1;entryX=0;entryY=0.5;entryDx=0;entryDy=0;" edge="1" parent="1" target="SMXq_fUOEdLXHpyvRAcT-64">
          <mxGeometry relative="1" as="geometry">
            <mxPoint x="720" y="680" as="sourcePoint" />
          </mxGeometry>
        </mxCell>
        <mxCell id="SMXq_fUOEdLXHpyvRAcT-61" value="" style="edgeStyle=orthogonalEdgeStyle;rounded=0;orthogonalLoop=1;jettySize=auto;html=1;exitX=0.5;exitY=1;exitDx=0;exitDy=0;" edge="1" parent="1" source="-d0Yh-_UQnf0t4MP10DG-6" target="SMXq_fUOEdLXHpyvRAcT-60">
          <mxGeometry relative="1" as="geometry">
            <mxPoint x="945" y="850" as="sourcePoint" />
          </mxGeometry>
        </mxCell>
        <mxCell id="SMXq_fUOEdLXHpyvRAcT-42" value="SI" style="text;html=1;align=center;verticalAlign=middle;resizable=0;points=[];autosize=1;strokeColor=none;fillColor=none;" vertex="1" parent="1">
          <mxGeometry x="905" y="730" width="30" height="30" as="geometry" />
        </mxCell>
        <mxCell id="SMXq_fUOEdLXHpyvRAcT-67" value="" style="edgeStyle=orthogonalEdgeStyle;rounded=0;orthogonalLoop=1;jettySize=auto;html=1;" edge="1" parent="1" target="SMXq_fUOEdLXHpyvRAcT-66">
          <mxGeometry relative="1" as="geometry">
            <mxPoint x="1200" y="690" as="sourcePoint" />
          </mxGeometry>
        </mxCell>
        <mxCell id="SMXq_fUOEdLXHpyvRAcT-47" value="" style="edgeStyle=orthogonalEdgeStyle;rounded=0;orthogonalLoop=1;jettySize=auto;html=1;" edge="1" parent="1" source="SMXq_fUOEdLXHpyvRAcT-45" target="SMXq_fUOEdLXHpyvRAcT-10">
          <mxGeometry relative="1" as="geometry" />
        </mxCell>
        <mxCell id="SMXq_fUOEdLXHpyvRAcT-50" value="" style="edgeStyle=orthogonalEdgeStyle;rounded=0;orthogonalLoop=1;jettySize=auto;html=1;" edge="1" parent="1" source="SMXq_fUOEdLXHpyvRAcT-45">
          <mxGeometry relative="1" as="geometry">
            <mxPoint x="480" y="440" as="targetPoint" />
          </mxGeometry>
        </mxCell>
        <mxCell id="SMXq_fUOEdLXHpyvRAcT-45" value="seconds &amp;gt;=0" style="rhombus;whiteSpace=wrap;html=1;" vertex="1" parent="1">
          <mxGeometry x="310" y="400" width="100" height="80" as="geometry" />
        </mxCell>
        <mxCell id="SMXq_fUOEdLXHpyvRAcT-48" value="SI" style="text;html=1;align=center;verticalAlign=middle;resizable=0;points=[];autosize=1;strokeColor=none;fillColor=none;" vertex="1" parent="1">
          <mxGeometry x="375" y="480" width="30" height="30" as="geometry" />
        </mxCell>
        <mxCell id="SMXq_fUOEdLXHpyvRAcT-54" value="" style="edgeStyle=orthogonalEdgeStyle;rounded=0;orthogonalLoop=1;jettySize=auto;html=1;" edge="1" parent="1" target="SMXq_fUOEdLXHpyvRAcT-53">
          <mxGeometry relative="1" as="geometry">
            <mxPoint x="710" y="440" as="sourcePoint" />
          </mxGeometry>
        </mxCell>
        <mxCell id="SMXq_fUOEdLXHpyvRAcT-51" value="NO" style="text;html=1;align=center;verticalAlign=middle;resizable=0;points=[];autosize=1;strokeColor=none;fillColor=none;" vertex="1" parent="1">
          <mxGeometry x="400" y="400" width="40" height="30" as="geometry" />
        </mxCell>
        <mxCell id="SMXq_fUOEdLXHpyvRAcT-52" value="NO" style="text;html=1;align=center;verticalAlign=middle;resizable=0;points=[];autosize=1;strokeColor=none;fillColor=none;" vertex="1" parent="1">
          <mxGeometry x="1020" y="658" width="40" height="30" as="geometry" />
        </mxCell>
        <mxCell id="SMXq_fUOEdLXHpyvRAcT-53" value="FIN" style="ellipse;whiteSpace=wrap;html=1;" vertex="1" parent="1">
          <mxGeometry x="747" y="400" width="80" height="80" as="geometry" />
        </mxCell>
        <mxCell id="SMXq_fUOEdLXHpyvRAcT-55" value="FIN" style="ellipse;whiteSpace=wrap;html=1;" vertex="1" parent="1">
          <mxGeometry x="80" y="880" width="80" height="80" as="geometry" />
        </mxCell>
        <mxCell id="SMXq_fUOEdLXHpyvRAcT-57" value="FIN" style="ellipse;whiteSpace=wrap;html=1;" vertex="1" parent="1">
          <mxGeometry x="453.75" y="880" width="80" height="80" as="geometry" />
        </mxCell>
        <mxCell id="SMXq_fUOEdLXHpyvRAcT-60" value="FIN" style="ellipse;whiteSpace=wrap;html=1;" vertex="1" parent="1">
          <mxGeometry x="905" y="880" width="80" height="80" as="geometry" />
        </mxCell>
        <mxCell id="SMXq_fUOEdLXHpyvRAcT-62" value="FIN" style="ellipse;whiteSpace=wrap;html=1;" vertex="1" parent="1">
          <mxGeometry x="320" y="640" width="80" height="80" as="geometry" />
        </mxCell>
        <mxCell id="SMXq_fUOEdLXHpyvRAcT-64" value="FIN" style="ellipse;whiteSpace=wrap;html=1;" vertex="1" parent="1">
          <mxGeometry x="740" y="640" width="80" height="80" as="geometry" />
        </mxCell>
        <mxCell id="SMXq_fUOEdLXHpyvRAcT-66" value="FIN" style="ellipse;whiteSpace=wrap;html=1;" vertex="1" parent="1">
          <mxGeometry x="1230" y="650" width="80" height="80" as="geometry" />
        </mxCell>
        <mxCell id="Cp4Wv6S5Zo52E7-xloWP-2" value="OUTPUT&lt;div&gt;&quot;Error: Input seconds cannot be negative.&quot;&lt;/div&gt;" style="shape=parallelogram;perimeter=parallelogramPerimeter;whiteSpace=wrap;html=1;fixedSize=1;" vertex="1" parent="1">
          <mxGeometry x="470" y="410" width="260" height="60" as="geometry" />
        </mxCell>
        <mxCell id="-d0Yh-_UQnf0t4MP10DG-1" value="OUTPUT&amp;nbsp;&lt;div&gt;&quot;0&quot;, seconds / 3600, &quot;:&quot;&lt;/div&gt;" style="shape=parallelogram;perimeter=parallelogramPerimeter;whiteSpace=wrap;html=1;fixedSize=1;" vertex="1" parent="1">
          <mxGeometry x="40" y="760" width="160" height="60" as="geometry" />
        </mxCell>
        <mxCell id="-d0Yh-_UQnf0t4MP10DG-2" value="OUTPUT&lt;div&gt;seconds/3600, &quot;:&quot;&lt;br&gt;&lt;/div&gt;" style="shape=parallelogram;perimeter=parallelogramPerimeter;whiteSpace=wrap;html=1;fixedSize=1;" vertex="1" parent="1">
          <mxGeometry x="180" y="650" width="130" height="60" as="geometry" />
        </mxCell>
        <mxCell id="-d0Yh-_UQnf0t4MP10DG-3" style="edgeStyle=orthogonalEdgeStyle;rounded=0;orthogonalLoop=1;jettySize=auto;html=1;exitX=0.5;exitY=1;exitDx=0;exitDy=0;" edge="1" parent="1" source="-d0Yh-_UQnf0t4MP10DG-2" target="-d0Yh-_UQnf0t4MP10DG-2">
          <mxGeometry relative="1" as="geometry" />
        </mxCell>
        <mxCell id="-d0Yh-_UQnf0t4MP10DG-4" value="OUTPUT&lt;div&gt;&quot;0&quot;, (segundos%3600)/60, &quot;:&quot;&lt;br&gt;&lt;/div&gt;" style="shape=parallelogram;perimeter=parallelogramPerimeter;whiteSpace=wrap;html=1;fixedSize=1;" vertex="1" parent="1">
          <mxGeometry x="400" y="770" width="187.5" height="60" as="geometry" />
        </mxCell>
        <mxCell id="-d0Yh-_UQnf0t4MP10DG-5" value="&lt;div&gt;OUTPUT&lt;/div&gt;(segundos%3600)/60, &quot;:&quot;" style="shape=parallelogram;perimeter=parallelogramPerimeter;whiteSpace=wrap;html=1;fixedSize=1;" vertex="1" parent="1">
          <mxGeometry x="560" y="650" width="172.5" height="60" as="geometry" />
        </mxCell>
        <mxCell id="-d0Yh-_UQnf0t4MP10DG-6" value="OUTPUT&lt;div&gt;&quot;0&quot;, (segundos%3600)%60&lt;br&gt;&lt;/div&gt;" style="shape=parallelogram;perimeter=parallelogramPerimeter;whiteSpace=wrap;html=1;fixedSize=1;" vertex="1" parent="1">
          <mxGeometry x="855" y="770" width="180" height="60" as="geometry" />
        </mxCell>
        <mxCell id="-d0Yh-_UQnf0t4MP10DG-7" value="OUTPUT&lt;div&gt;(segundos%3600)%60&lt;br&gt;&lt;/div&gt;" style="shape=parallelogram;perimeter=parallelogramPerimeter;whiteSpace=wrap;html=1;fixedSize=1;" vertex="1" parent="1">
          <mxGeometry x="1060" y="660" width="160" height="60" as="geometry" />
        </mxCell>
      </root>
    </mxGraphModel>
  </diagram>
</mxfile>
